<svg xmlns="http://www.w3.org/2000/svg" viewBox="0 0 363.68 51.37">
  <defs>
    <style>
      .l1 { fill: none; }
      .l2 { fill: #ffffff; }
      .l3 { fill: #de3f26; }
    </style>
  </defs>
  <g>
    <path class="l2" d="M71.17,40.13c-.36-.37-.54-.83-.54-1.38,0-.23.07-.52.21-.86l10.96-25.88c.23-.52.55-.94.97-1.27.42-.33.92-.49,1.53-.49h.43c.6,0,1.11.17,1.53.49.42.33.74.75.97,1.27l10.96,25.88c.14.34.22.63.22.86,0,.54-.18,1-.54,1.38-.36.37-.82.56-1.4.56-.4,0-.77-.11-1.1-.32-.33-.21-.58-.51-.75-.88l-2.79-6.71h-14.62l-2.79,6.71c-.17.37-.42.67-.75.88-.33.21-.7.32-1.1.32-.57,0-1.04-.19-1.4-.56ZM78.71,29.21h11.61l-5.8-13.97-5.8,13.97Z"/>
    <path class="l2" d="M103.95,38.84c-.34-.14-.63-.38-.86-.71-.23-.33-.34-.68-.34-1.05,0-.49.16-.91.49-1.27s.75-.54,1.27-.54c.29,0,.56.06.82.17,2.64,1.17,5.46,1.76,8.47,1.76,5.02,0,7.52-1.65,7.52-4.94,0-.86-.32-1.58-.97-2.15-.64-.57-1.44-1.02-2.39-1.35-.95-.33-2.29-.72-4.04-1.18-2.32-.6-4.2-1.18-5.63-1.74-1.43-.56-2.67-1.4-3.7-2.51s-1.55-2.61-1.55-4.47c0-1.63.43-3.12,1.29-4.45.86-1.33,2.13-2.39,3.8-3.18,1.68-.79,3.69-1.18,6.04-1.18,3.15,0,6,.47,8.55,1.42.8.29,1.2.86,1.2,1.72,0,.46-.16.87-.47,1.25-.32.37-.73.56-1.25.56-.17,0-.4-.06-.69-.17-2.24-.77-4.54-1.16-6.92-1.16s-4.11.43-5.52,1.29c-1.42.86-2.13,2.06-2.13,3.61,0,1.03.34,1.87,1.01,2.51.67.65,1.52,1.15,2.54,1.5,1.02.36,2.4.74,4.15,1.14,2.26.54,4.09,1.09,5.48,1.63,1.39.54,2.58,1.39,3.57,2.54.99,1.15,1.48,2.69,1.48,4.64,0,1.61-.46,3.05-1.38,4.32-.92,1.28-2.21,2.27-3.87,2.99-1.66.72-3.58,1.07-5.76,1.07-3.64,0-7.05-.69-10.23-2.06Z"/>
    <path class="l2" d="M137.43,39.61c-1.89-.86-3.44-2.17-4.64-3.93s-1.81-3.92-1.81-6.47V12.23c0-.54.19-1.01.56-1.4.37-.39.83-.58,1.38-.58s1.01.19,1.4.58.58.85.58,1.4v17.11c0,1.72.39,3.18,1.18,4.39.79,1.2,1.83,2.11,3.12,2.71s2.67.9,4.13.9,2.84-.3,4.13-.9,2.33-1.5,3.12-2.71c.79-1.2,1.18-2.67,1.18-4.39V12.23c0-.54.19-1.01.56-1.4.37-.39.83-.58,1.38-.58s1.01.19,1.4.58c.39.39.58.85.58,1.4v16.98c0,2.55-.6,4.71-1.81,6.47s-2.75,3.07-4.64,3.93c-1.89.86-3.85,1.29-5.89,1.29s-4-.43-5.89-1.29Z"/>
    <path class="l2" d="M164.34,40.13c-.37-.37-.56-.83-.56-1.38V13.09c0-.77.27-1.44.82-2,.54-.56,1.2-.84,1.98-.84h1.42c.57,0,1.1.17,1.57.52.47.34.82.77,1.05,1.29l9.76,24.33,9.76-24.33c.23-.52.58-.95,1.05-1.29.47-.34.99-.52,1.57-.52h1.42c.77,0,1.43.28,1.98.84.54.56.82,1.23.82,2v25.66c0,.54-.19,1-.56,1.38-.37.37-.83.56-1.38.56s-1.01-.19-1.4-.56-.58-.83-.58-1.38V14.33l-9.93,24.55c-.23.54-.6.98-1.1,1.31-.5.33-1.05.49-1.66.49s-1.15-.17-1.65-.49c-.5-.33-.87-.77-1.1-1.31l-9.93-24.55v24.42c0,.54-.19,1-.58,1.38s-.85.56-1.4.56-1-.19-1.38-.56Z"/>
    <path class="l3" d="M224.68,40.13c-.39-.37-.58-.83-.58-1.38v-10.96l-10.27-14.4c-.23-.37-.34-.76-.34-1.16,0-.54.18-1.01.54-1.4.36-.39.81-.58,1.35-.58.72,0,1.29.33,1.72.99l8.98,13.07,8.98-13.07c.43-.66,1-.99,1.72-.99.54,0,1,.19,1.38.58.37.39.54.85.52,1.4,0,.4-.11.79-.34,1.16l-10.32,14.4v10.96c0,.54-.19,1-.56,1.38-.37.37-.83.56-1.38.56s-1.01-.19-1.4-.56Z"/>
    <path class="l3" d="M244.51,39.91c-.37-.37-.56-.83-.56-1.38V12.44c0-.54.19-1.01.56-1.4.37-.39.83-.58,1.38-.58h17.24c.52,0,.95.18,1.31.54.36.36.54.8.54,1.31s-.18.95-.54,1.29c-.36.34-.79.52-1.31.52h-15.26v9.5h13.71c.52,0,.95.18,1.31.54.36.36.54.8.54,1.31s-.18.95-.54,1.29c-.36.34-.8.52-1.31.52h-13.71v9.54h15.26c.52,0,.95.18,1.31.54s.54.79.54,1.31-.18.95-.54,1.29-.79.52-1.31.52h-17.24c-.54,0-1-.19-1.38-.56Z"/>
    <path class="l3" d="M271.94,40.13c-.37-.37-.56-.83-.56-1.38V13.09c0-.77.27-1.44.82-2,.54-.56,1.2-.84,1.98-.84h1.42c.57,0,1.1.17,1.57.52.47.34.82.77,1.05,1.29l9.76,24.33,9.76-24.33c.23-.52.58-.95,1.05-1.29.47-.34,1-.52,1.57-.52h1.42c.77,0,1.43.28,1.98.84.54.56.82,1.23.82,2v25.66c0,.54-.19,1-.56,1.38-.37.37-.83.56-1.38.56s-1.01-.19-1.4-.56-.58-.83-.58-1.38V14.33l-9.93,24.55c-.23.54-.6.98-1.1,1.31s-1.05.49-1.65.49-1.15-.17-1.66-.49c-.5-.33-.87-.77-1.1-1.31l-9.93-24.55v24.42c0,.54-.19,1-.58,1.38-.39.37-.85.56-1.4.56s-1-.19-1.38-.56Z"/>
    <path class="l3" d="M313.47,39.91c-.37-.37-.56-.83-.56-1.38V12.44c0-.54.19-1.01.56-1.4.37-.39.83-.58,1.38-.58h17.24c.52,0,.95.18,1.31.54.36.36.54.8.54,1.31s-.18.95-.54,1.29c-.36.34-.79.52-1.31.52h-15.26v9.5h13.71c.52,0,.95.18,1.31.54.36.36.54.8.54,1.31s-.18.95-.54,1.29c-.36.34-.8.52-1.31.52h-13.71v9.54h15.26c.52,0,.95.18,1.31.54s.54.79.54,1.31-.18.95-.54,1.29-.79.52-1.31.52h-17.24c-.54,0-1-.19-1.38-.56Z"/>
    <path class="l3" d="M340.89,40.13c-.37-.37-.56-.83-.56-1.38V12.23c0-.54.19-1.01.56-1.4.37-.39.83-.58,1.38-.58s1.01.19,1.4.58c.39.39.58.85.58,1.4v13.67l14.7-14.96c.4-.46.89-.69,1.46-.69.49,0,.91.17,1.27.49.36.33.54.74.54,1.23,0,.57-.16,1.02-.47,1.33l-9.93,9.89,11.39,14.36c.32.4.47.82.47,1.25.03.52-.14.96-.52,1.33s-.83.56-1.38.56c-.66,0-1.18-.26-1.55-.77l-11.09-14.14-4.9,4.94v8.04c0,.54-.19,1-.58,1.38-.39.37-.85.56-1.4.56s-1-.19-1.38-.56Z"/>
  </g>
  <g>
    <path class="l1" d="M31.34,22.58c0-4.14-3.85-6.94-3.85-6.94,0,0-3.85,2.8-3.85,6.94,0,0-.49,3.1,3.85,7.01,4.34-3.9,3.85-7.01,3.85-7.01Z"/>
    <path class="l1" d="M18.21,32.2s-1.79,4.6.52,8.2c0,0,1.31,2.98,7.28,3.95,1.6-5.83-.56-8.26-.56-8.26-2.31-3.61-7.24-3.9-7.24-3.9Z"/>
    <path class="l1" d="M29.52,36.1s-2.16,2.43-.56,8.26c5.97-.98,7.28-3.95,7.28-3.95,2.31-3.61.52-8.2.52-8.2,0,0-4.93.29-7.24,3.9Z"/>
    <path class="l3" d="M53.76,35.39l-14.99-29.4c-1.88-3.68-5.66-5.99-9.79-5.99h-2.98c-4.13,0-7.91,2.32-9.79,5.99L1.21,35.39c-3.73,7.31,1.58,15.98,9.79,15.98h5.19c-1.67-2.88-1.38-6.27-1.38-6.27,0,0,5.12-1.17,8.56,1.82,0,0,1.71,1.08,2.56,4.45h3.1c.85-3.37,2.56-4.45,2.56-4.45,3.44-3,8.56-1.82,8.56-1.82,0,0,.3,3.39-1.38,6.27h5.19c8.21,0,13.52-8.67,9.79-15.98ZM26.01,44.36c-5.97-.98-7.28-3.95-7.28-3.95-2.31-3.61-.52-8.2-.52-8.2,0,0,4.93.29,7.24,3.9,0,0,2.16,2.43.56,8.26ZM27.49,29.59c-4.34-3.9-3.85-7.01-3.85-7.01,0-4.14,3.85-6.94,3.85-6.94,0,0,3.85,2.8,3.85,6.94,0,0,.49,3.1-3.85,7.01ZM36.24,40.41s-1.31,2.98-7.28,3.95c-1.6-5.83.56-8.26.56-8.26,2.31-3.61,7.24-3.9,7.24-3.9,0,0,1.79,4.6-.52,8.2Z"/>
  </g>
</svg>